<?xml version="1.0" encoding="UTF-8"?>
<svg width="40px" height="40px" viewBox="0 0 40 40" version="1.1" xmlns="http://www.w3.org/2000/svg" xmlns:xlink="http://www.w3.org/1999/xlink">
    <!-- Generator: Sketch 55.2 (78181) - https://sketchapp.com -->
    <title>Artboard</title>
    <desc>Created with Sketch.</desc>
    <g id="Artboard" stroke="none" stroke-width="1" fill="none" fill-rule="evenodd">
        <g id="Group" transform="translate(5.000000, 6.000000)" fill="#000000" fill-rule="nonzero">
            <path d="M2.8125,0 L27.1875,0 C28.7408009,0 30,1.28209367 30,2.86363636 L30,18.1363636 C30,19.7179063 28.7408009,21 27.1875,21 L2.8125,21 C1.25919914,21 0,19.7179063 0,18.1363636 L0,2.86363636 C0,1.28209367 1.25919914,0 2.8125,0 Z M2.8125,1.90909091 C2.29473305,1.90909091 1.875,2.33645547 1.875,2.86363636 L1.875,18.1363636 C1.875,18.6635445 2.29473305,19.0909091 2.8125,19.0909091 L27.1875,19.0909091 C27.705267,19.0909091 28.125,18.6635445 28.125,18.1363636 L28.125,2.86363636 C28.125,2.33645547 27.705267,1.90909091 27.1875,1.90909091 L2.8125,1.90909091 Z" id="Rectangle"></path>
            <path d="M9.31765157,13.7388752 C12.5372368,16.7537083 17.4627632,16.7537083 20.6823484,13.7388752 C21.0796951,13.3667982 21.1081256,12.7343423 20.7458498,12.3262456 C20.3835741,11.9181488 19.7677784,11.8889491 19.3704318,12.2610261 C16.8941708,14.5798072 13.1058292,14.5798072 10.6295682,12.2610261 C10.2322216,11.8889491 9.61642594,11.9181488 9.25415016,12.3262456 C8.89187437,12.7343423 8.92030492,13.3667982 9.31765157,13.7388752 Z" id="Path"></path>
            <path d="M11,7 L11,9 C11,9.55228475 11.4477153,10 12,10 C12.5522847,10 13,9.55228475 13,9 L13,7 C13,6.44771525 12.5522847,6 12,6 C11.4477153,6 11,6.44771525 11,7 Z" id="Path"></path>
            <path d="M17,7 L17,9 C17,9.55228475 17.4477153,10 18,10 C18.5522847,10 19,9.55228475 19,9 L19,7 C19,6.44771525 18.5522847,6 18,6 C17.4477153,6 17,6.44771525 17,7 Z" id="Path"></path>
            <path d="M20.9873014,25.835601 C21.0804205,26.4451327 20.6495654,27 20.0831443,27 L10.9168557,27 C10.3504346,27 9.9195795,26.4451327 10.0126986,25.835601 L10.9293274,19.835601 C11.002992,19.353413 11.3854005,19 11.8334846,19 L19.1665154,19 C19.6145995,19 19.997008,19.353413 20.0706726,19.835601 L20.9873014,25.835601 Z M19.0011002,25 L18.3900143,21 L12.6099857,21 L11.9988998,25 L19.0011002,25 Z" id="Path"></path>
            <path d="M7.94444444,27 L23.0555556,27 C23.5771578,27 24,26.5522847 24,26 C24,25.4477153 23.5771578,25 23.0555556,25 L7.94444444,25 C7.42284218,25 7,25.4477153 7,26 C7,26.5522847 7.42284218,27 7.94444444,27 Z" id="Path"></path>
        </g>
    </g>
</svg>