<?xml version="1.0" encoding="UTF-8"?>
<svg width="80px" height="80px" viewBox="0 0 80 80" version="1.1" xmlns="http://www.w3.org/2000/svg" xmlns:xlink="http://www.w3.org/1999/xlink">
    <!-- Generator: Sketch 55.2 (78181) - https://sketchapp.com -->
    <title>Artboard</title>
    <desc>Created with Sketch.</desc>
    <g id="Artboard" stroke="none" stroke-width="1" fill="none" fill-rule="evenodd">
        <g id="Group" transform="translate(8.000000, 12.000000)" fill="#00FFC6" fill-rule="nonzero">
            <path d="M6,0.216249219 L58,0.216249219 C61.3137085,0.216249219 64,2.91395462 64,6.24174287 L64,38.377709 C64,41.7054973 61.3137085,44.4032027 58,44.4032027 L6,44.4032027 C2.6862915,44.4032027 0,41.7054973 0,38.377709 L0,6.24174287 C0,2.91395462 2.6862915,0.216249219 6,0.216249219 Z M6,4.23324499 C4.8954305,4.23324499 4,5.13248012 4,6.24174287 L4,38.377709 C4,39.4869718 4.8954305,40.3862069 6,40.3862069 L58,40.3862069 C59.1045695,40.3862069 60,39.4869718 60,38.377709 L60,6.24174287 C60,5.13248012 59.1045695,4.23324499 58,4.23324499 L6,4.23324499 Z" id="Rectangle"></path>
            <path d="M20.327181,30.2385194 C26.9409317,36.2941441 37.0590683,36.2941441 43.672819,30.2385194 C44.4890582,29.4911616 44.5474609,28.2208042 43.8032651,27.4010969 C43.0590694,26.5813895 41.7940869,26.5227386 40.9778477,27.2700965 C35.8910519,31.9276241 28.1089481,31.9276241 23.0221523,27.2700965 C22.2059131,26.5227386 20.9409306,26.5813895 20.1967349,27.4010969 C19.4525391,28.2208042 19.5109418,29.4911616 20.327181,30.2385194 Z" id="Path" transform="translate(32.000000, 30.763017) scale(1, -1) translate(-32.000000, -30.763017) "></path>
            <path d="M24,14.2757344 L24,18.2927302 C24,19.4019929 24.8954305,20.3012281 26,20.3012281 C27.1045695,20.3012281 28,19.4019929 28,18.2927302 L28,14.2757344 C28,13.1664717 27.1045695,12.2672365 26,12.2672365 C24.8954305,12.2672365 24,13.1664717 24,14.2757344 Z" id="Path"></path>
            <path d="M36,14.2757344 L36,18.2927302 C36,19.4019929 36.8954305,20.3012281 38,20.3012281 C39.1045695,20.3012281 40,19.4019929 40,18.2927302 L40,14.2757344 C40,13.1664717 39.1045695,12.2672365 38,12.2672365 C36.8954305,12.2672365 36,13.1664717 36,14.2757344 Z" id="Path"></path>
            <path d="M43.9727878,54.1154971 C44.1759651,55.3397402 43.2358789,56.45419 42,56.45419 L22,56.45419 C20.7641211,56.45419 19.8240349,55.3397402 20.0272122,54.1154971 L22.0272122,42.0645098 C22.1879415,41.0960362 23.0223217,40.3862069 24,40.3862069 L40,40.3862069 C40.9776783,40.3862069 41.8120585,41.0960362 41.9727878,42.0645098 L43.9727878,54.1154971 Z M39.6390792,52.4371942 L38.3057458,44.4032027 L25.6942542,44.4032027 L24.3609208,52.4371942 L39.6390792,52.4371942 Z" id="Path"></path>
            <path d="M16,56.45419 L48,56.45419 C49.1045695,56.45419 50,55.5549548 50,54.4456921 C50,53.3364293 49.1045695,52.4371942 48,52.4371942 L16,52.4371942 C14.8954305,52.4371942 14,53.3364293 14,54.4456921 C14,55.5549548 14.8954305,56.45419 16,56.45419 Z" id="Path"></path>
        </g>
    </g>
</svg>